<?xml version="1.0" encoding="utf-8"?>
<!-- Generator: Adobe Illustrator 25.2.3, SVG Export Plug-In . SVG Version: 6.00 Build 0)  -->
<svg version="1.1" id="Layer_1" xmlns="http://www.w3.org/2000/svg" xmlns:xlink="http://www.w3.org/1999/xlink" x="0px" y="0px"
	 viewBox="0 0 649 382" enable-background="new 0 0 649 382" xml:space="preserve">
<g>
	<g>
		<g>
			<path fill="none" stroke="#FF0000" stroke-width="3" stroke-miterlimit="10" d="M-121,755.5c-25.13,0-45.5-20.37-45.5-45.5
				s20.37-45.5,45.5-45.5"/>
		</g>
		<g>
			<circle fill="none" stroke="#FF0000" stroke-width="3" stroke-miterlimit="10" cx="-435.5" cy="710" r="4"/>
			<path fill="none" stroke="#FF0000" stroke-width="3" stroke-miterlimit="10" d="M-435.5,678.5c17.4,0,31.5,14.1,31.5,31.5
				s-14.1,31.5-31.5,31.5"/>
			<path fill="none" stroke="#FF0000" stroke-width="3" stroke-miterlimit="10" d="M-328.5,664c25.13,0,45.5,20.37,45.5,45.5
				s-20.37,45.5-45.5,45.5"/>
			<line fill="none" stroke="#FF0000" stroke-width="3" stroke-miterlimit="10" x1="-445" y1="686" x2="-445" y2="734"/>
			<line fill="none" stroke="#FF0000" stroke-width="3" stroke-miterlimit="10" x1="-440" y1="710.5" x2="-445" y2="710.5"/>
			<line fill="none" stroke="#FF0000" stroke-width="3" stroke-miterlimit="10" x1="-435" y1="678.5" x2="-446.5" y2="678.5"/>
			<line fill="none" stroke="#FF0000" stroke-width="3" stroke-miterlimit="10" x1="-434.5" y1="741.5" x2="-446.5" y2="741.5"/>
			<g>
				<path fill="none" stroke="#FF0000" stroke-width="3" stroke-miterlimit="10" d="M-429.27,544c91.68,0,166,74.32,166,166
					s-74.32,166-166,166"/>
				<line fill="none" stroke="#FF0000" stroke-width="3" stroke-miterlimit="10" x1="-426.63" y1="544" x2="-476.23" y2="544"/>
				<line fill="none" stroke="#FF0000" stroke-width="3" stroke-miterlimit="10" x1="-424" y1="876" x2="-476.23" y2="876"/>
			</g>
			<rect x="-476" y="647.5" fill="none" stroke="#FF0000" stroke-width="3" stroke-miterlimit="10" width="148" height="125"/>
			<line fill="none" stroke="#FF0000" stroke-width="3" stroke-miterlimit="10" x1="-428" y1="643" x2="-428" y2="647"/>
			<line fill="none" stroke="#FF0000" stroke-width="3" stroke-miterlimit="10" x1="-375" y1="643" x2="-375" y2="647"/>
			<line fill="none" stroke="#FF0000" stroke-width="3" stroke-miterlimit="10" x1="-353" y1="643" x2="-353" y2="647"/>
			<rect x="-407" y="643" fill="#FF0000" width="12" height="4.5"/>
			<line fill="none" stroke="#FF0000" stroke-width="3" stroke-miterlimit="10" x1="-428" y1="773" x2="-428" y2="777"/>
			<line fill="none" stroke="#FF0000" stroke-width="3" stroke-miterlimit="10" x1="-375" y1="773" x2="-375" y2="777"/>
			<line fill="none" stroke="#FF0000" stroke-width="3" stroke-miterlimit="10" x1="-353" y1="773" x2="-353" y2="777"/>
			<rect x="-407" y="773" fill="#FF0000" width="12" height="4.5"/>
		</g>
		<rect x="-476" y="519.5" fill="none" stroke="#FF0000" stroke-width="3" stroke-miterlimit="10" width="355" height="381"/>
	</g>
	<g>
		<g>
			<path fill="none" stroke="#FF0000" stroke-width="3" stroke-miterlimit="10" d="M-121,755.5c25.13,0,45.5-20.37,45.5-45.5
				s-20.37-45.5-45.5-45.5"/>
		</g>
		<g>
			<circle fill="none" stroke="#FF0000" stroke-width="3" stroke-miterlimit="10" cx="193.5" cy="710" r="4"/>
			<path fill="none" stroke="#FF0000" stroke-width="3" stroke-miterlimit="10" d="M193.5,678.5c-17.4,0-31.5,14.1-31.5,31.5
				s14.1,31.5,31.5,31.5"/>
			<path fill="none" stroke="#FF0000" stroke-width="3" stroke-miterlimit="10" d="M86.5,664C61.37,664,41,684.37,41,709.5
				S61.37,755,86.5,755"/>
			<line fill="none" stroke="#FF0000" stroke-width="3" stroke-miterlimit="10" x1="203" y1="686" x2="203" y2="734"/>
			<line fill="none" stroke="#FF0000" stroke-width="3" stroke-miterlimit="10" x1="198" y1="710.5" x2="203" y2="710.5"/>
			<line fill="none" stroke="#FF0000" stroke-width="3" stroke-miterlimit="10" x1="193" y1="678.5" x2="204.5" y2="678.5"/>
			<line fill="none" stroke="#FF0000" stroke-width="3" stroke-miterlimit="10" x1="192.5" y1="741.5" x2="204.5" y2="741.5"/>
			<g>
				<path fill="none" stroke="#FF0000" stroke-width="3" stroke-miterlimit="10" d="M187.27,544c-91.68,0-166,74.32-166,166
					s74.32,166,166,166"/>
				<line fill="none" stroke="#FF0000" stroke-width="3" stroke-miterlimit="10" x1="184.63" y1="544" x2="234.23" y2="544"/>
				<line fill="none" stroke="#FF0000" stroke-width="3" stroke-miterlimit="10" x1="182" y1="876" x2="234.23" y2="876"/>
			</g>
			
				<rect x="86" y="647.5" transform="matrix(-1 -4.489088e-11 4.489088e-11 -1 320 1420)" fill="none" stroke="#FF0000" stroke-width="3" stroke-miterlimit="10" width="148" height="125"/>
			<line fill="none" stroke="#FF0000" stroke-width="3" stroke-miterlimit="10" x1="186" y1="643" x2="186" y2="647"/>
			<line fill="none" stroke="#FF0000" stroke-width="3" stroke-miterlimit="10" x1="133" y1="643" x2="133" y2="647"/>
			<line fill="none" stroke="#FF0000" stroke-width="3" stroke-miterlimit="10" x1="111" y1="643" x2="111" y2="647"/>
			
				<rect x="153" y="643" transform="matrix(-1 -4.486867e-11 4.486867e-11 -1 318 1290.5)" fill="#FF0000" width="12" height="4.5"/>
			<line fill="none" stroke="#FF0000" stroke-width="3" stroke-miterlimit="10" x1="186" y1="773" x2="186" y2="777"/>
			<line fill="none" stroke="#FF0000" stroke-width="3" stroke-miterlimit="10" x1="133" y1="773" x2="133" y2="777"/>
			<line fill="none" stroke="#FF0000" stroke-width="3" stroke-miterlimit="10" x1="111" y1="773" x2="111" y2="777"/>
			
				<rect x="153" y="773" transform="matrix(-1 -4.486867e-11 4.486867e-11 -1 318 1550.5)" fill="#FF0000" width="12" height="4.5"/>
		</g>
		
			<rect x="-121" y="519.5" transform="matrix(-1 -4.489576e-11 4.489576e-11 -1 113 1420)" fill="none" stroke="#FF0000" stroke-width="3" stroke-miterlimit="10" width="355" height="381"/>
	</g>
</g>
<g>
	<g>
		<g>
			<path fill="none" stroke="#FF0000" stroke-miterlimit="10" d="M980.15,920.09c-25.91,7.34-46.97-6.45-47.06-30.8
				c-0.08-24.35,20.85-50.04,46.76-57.39"/>
		</g>
		<g>
			
				<ellipse transform="matrix(0.7295 -0.684 0.684 0.7295 -484.6452 710.4198)" fill="none" stroke="#FF0000" stroke-miterlimit="10" cx="655.77" cy="967.89" rx="4.63" ry="3.45"/>
			<path fill="none" stroke="#FF0000" stroke-miterlimit="10" d="M655.67,937.36c17.93-5.08,32.52,4.46,32.58,21.32
				c0.06,16.86-14.44,34.65-32.37,39.73"/>
			<path fill="none" stroke="#FF0000" stroke-miterlimit="10" d="M765.93,892.05c25.91-7.34,46.97,6.45,47.06,30.8
				s-20.85,50.04-46.76,57.39"/>
			<line fill="none" stroke="#FF0000" stroke-miterlimit="10" x1="645.9" y1="947.4" x2="646.06" y2="993.92"/>
			<line fill="none" stroke="#FF0000" stroke-miterlimit="10" x1="651.14" y1="969.69" x2="645.98" y2="971.15"/>
			<line fill="none" stroke="#FF0000" stroke-miterlimit="10" x1="656.19" y1="937.22" x2="644.33" y2="940.58"/>
			<line fill="none" stroke="#FF0000" stroke-miterlimit="10" x1="656.91" y1="998.12" x2="644.54" y2="1001.63"/>
			<g>
				<path fill="none" stroke="#FF0000" stroke-miterlimit="10" d="M661.66,805.2c94.51-26.79,171.38,23.52,171.68,112.37
					c0.3,88.84-76.08,182.58-170.59,209.37"/>
				<line fill="none" stroke="#FF0000" stroke-miterlimit="10" x1="664.37" y1="804.43" x2="613.24" y2="818.92"/>
				<line fill="none" stroke="#FF0000" stroke-miterlimit="10" x1="668.18" y1="1125.39" x2="614.32" y2="1140.65"/>
			</g>
			<polygon fill="none" stroke="#FF0000" stroke-miterlimit="10" points="766.8,997.05 614.23,1040.29 613.82,919.15 766.39,875.91 
							"/>
			<line fill="none" stroke="#FF0000" stroke-miterlimit="10" x1="663.29" y1="900.77" x2="663.3" y2="904.64"/>
			<line fill="none" stroke="#FF0000" stroke-miterlimit="10" x1="717.93" y1="885.28" x2="717.94" y2="889.16"/>
			<line fill="none" stroke="#FF0000" stroke-miterlimit="10" x1="740.61" y1="878.86" x2="740.62" y2="882.73"/>
			<polygon fill="none" stroke="#FF0000" stroke-miterlimit="10" points="697.32,895.49 684.95,898.99 684.94,894.63 697.31,891.13 
							"/>
			<line fill="none" stroke="#FF0000" stroke-miterlimit="10" x1="663.71" y1="1026.75" x2="663.72" y2="1030.62"/>
			<line fill="none" stroke="#FF0000" stroke-miterlimit="10" x1="718.35" y1="1011.26" x2="718.36" y2="1015.14"/>
			<line fill="none" stroke="#FF0000" stroke-miterlimit="10" x1="741.03" y1="1004.83" x2="741.04" y2="1008.71"/>
			<polygon fill="none" stroke="#FF0000" stroke-miterlimit="10" points="697.75,1021.47 685.38,1024.97 685.36,1020.61 
				697.73,1017.11 			"/>
		</g>
		<polygon fill="none" stroke="#FF0000" stroke-miterlimit="10" points="980.62,1060.61 614.64,1164.33 613.4,795.11 979.38,691.39 
					"/>
	</g>
	<g>
		<g>
			<path fill="none" stroke="#FF0000" stroke-miterlimit="10" d="M980.15,920.09c25.91-7.34,46.84-33.03,46.76-57.39
				c-0.08-24.35-21.15-38.14-47.06-30.8"/>
		</g>
		<g>
			
				<ellipse transform="matrix(0.7295 -0.684 0.684 0.7295 -183.5053 1104.2598)" fill="none" stroke="#FF0000" stroke-miterlimit="10" cx="1304.23" cy="784.11" rx="4.63" ry="3.45"/>
			<path fill="none" stroke="#FF0000" stroke-miterlimit="10" d="M1304.12,753.59c-17.94,5.08-32.43,22.87-32.37,39.73
				c0.06,16.86,14.64,26.41,32.58,21.32"/>
			<path fill="none" stroke="#FF0000" stroke-miterlimit="10" d="M1193.77,770.8c-25.91,7.34-46.84,33.03-46.76,57.39
				c0.08,24.35,21.15,38.14,47.06,30.8"/>
			<line fill="none" stroke="#FF0000" stroke-miterlimit="10" x1="1313.94" y1="758.08" x2="1314.1" y2="804.6"/>
			<line fill="none" stroke="#FF0000" stroke-miterlimit="10" x1="1308.87" y1="783.28" x2="1314.02" y2="781.82"/>
			<line fill="none" stroke="#FF0000" stroke-miterlimit="10" x1="1303.61" y1="753.73" x2="1315.46" y2="750.37"/>
			<line fill="none" stroke="#FF0000" stroke-miterlimit="10" x1="1303.3" y1="814.93" x2="1315.67" y2="811.42"/>
			<g>
				<path fill="none" stroke="#FF0000" stroke-miterlimit="10" d="M1297.26,625.07c-94.51,26.79-170.89,120.52-170.59,209.37
					s77.16,139.15,171.68,112.37"/>
				<line fill="none" stroke="#FF0000" stroke-miterlimit="10" x1="1294.54" y1="625.84" x2="1345.68" y2="611.35"/>
				<line fill="none" stroke="#FF0000" stroke-miterlimit="10" x1="1292.91" y1="948.34" x2="1346.76" y2="933.08"/>
			</g>
			<polygon fill="none" stroke="#FF0000" stroke-miterlimit="10" points="1193.61,876.09 1346.18,832.85 1345.77,711.71 
				1193.2,754.95 			"/>
			<line fill="none" stroke="#FF0000" stroke-miterlimit="10" x1="1296.28" y1="721.38" x2="1296.29" y2="725.25"/>
			<line fill="none" stroke="#FF0000" stroke-miterlimit="10" x1="1241.64" y1="736.86" x2="1241.65" y2="740.74"/>
			<line fill="none" stroke="#FF0000" stroke-miterlimit="10" x1="1218.96" y1="743.29" x2="1218.97" y2="747.17"/>
			<polygon fill="none" stroke="#FF0000" stroke-miterlimit="10" points="1262.27,735.38 1274.64,731.87 1274.63,727.51 
				1262.25,731.02 			"/>
			<line fill="none" stroke="#FF0000" stroke-miterlimit="10" x1="1296.7" y1="847.36" x2="1296.71" y2="851.23"/>
			<line fill="none" stroke="#FF0000" stroke-miterlimit="10" x1="1242.06" y1="862.84" x2="1242.07" y2="866.72"/>
			<line fill="none" stroke="#FF0000" stroke-miterlimit="10" x1="1219.38" y1="869.27" x2="1219.39" y2="873.14"/>
			<polyline fill="none" stroke="#FF0000" stroke-miterlimit="10" points="1262.68,857 1262.7,861.36 1275.07,857.85 
				1275.05,853.49 			"/>
		</g>
		<polygon fill="none" stroke="#FF0000" stroke-miterlimit="10" points="980.62,1060.61 1346.6,956.89 1345.36,587.67 
			979.38,691.39 		"/>
	</g>
</g>
<g opacity="0.1">
	<g>
		<g>
			<path fill="none" stroke="#FFFFFF" stroke-miterlimit="10" d="M305.58,233.5c-24.34,3.22-35.59-13.19-25.15-36.66
				s38.65-45.11,62.98-48.34"/>
		</g>
		<g>
			
				<ellipse transform="matrix(0.7783 -0.6279 0.6279 0.7783 -140.8496 63.8032)" fill="none" stroke="#FFFFFF" stroke-miterlimit="10" cx="19.93" cy="231.36" rx="4.94" ry="2.76"/>
			<path fill="none" stroke="#FFFFFF" stroke-miterlimit="10" d="M33.03,201.94c16.85-2.23,24.64,9.13,17.41,25.38
				s-26.76,31.23-43.6,33.46"/>
			<path fill="none" stroke="#FFFFFF" stroke-miterlimit="10" d="M142.68,174.67c24.34-3.22,35.59,13.19,25.15,36.66
				c-10.45,23.47-38.65,45.11-62.98,48.34"/>
			<line fill="none" stroke="#FFFFFF" stroke-miterlimit="10" x1="20.71" y1="210.16" x2="0.75" y2="255"/>
			<line fill="none" stroke="#FFFFFF" stroke-miterlimit="10" x1="15.36" y1="232.41" x2="10.52" y2="233.05"/>
			<line fill="none" stroke="#FFFFFF" stroke-miterlimit="10" x1="33.51" y1="201.88" x2="22.37" y2="203.35"/>
			<line fill="none" stroke="#FFFFFF" stroke-miterlimit="10" x1="7.8" y1="260.65" x2="-3.82" y2="262.19"/>
			<g>
				<path fill="none" stroke="#FFFFFF" stroke-miterlimit="10" d="M94.99,75.52c88.79-11.77,129.86,48.11,91.74,133.74
					S45.73,373.84-43.05,385.61"/>
				<line fill="none" stroke="#FFFFFF" stroke-miterlimit="10" x1="97.54" y1="75.18" x2="49.5" y2="81.54"/>
				<line fill="none" stroke="#FFFFFF" stroke-miterlimit="10" x1="-37.95" y1="384.93" x2="-88.54" y2="391.63"/>
			</g>
			<polygon fill="none" stroke="#FFFFFF" stroke-miterlimit="10" points="98.05,275.94 -45.28,294.93 6.69,178.18 150.02,159.19 			
				"/>
			<line fill="none" stroke="#FFFFFF" stroke-miterlimit="10" x1="55.05" y1="167.82" x2="53.39" y2="171.56"/>
			<line fill="none" stroke="#FFFFFF" stroke-miterlimit="10" x1="106.38" y1="161.02" x2="104.71" y2="164.75"/>
			<line fill="none" stroke="#FFFFFF" stroke-miterlimit="10" x1="127.68" y1="158.2" x2="126.02" y2="161.93"/>
			<polygon fill="none" stroke="#FFFFFF" stroke-miterlimit="10" points="85.14,167.79 73.52,169.33 75.39,165.13 87.01,163.59 			
				"/>
			<line fill="none" stroke="#FFFFFF" stroke-miterlimit="10" x1="1" y1="289.24" x2="-0.67" y2="292.98"/>
			<line fill="none" stroke="#FFFFFF" stroke-miterlimit="10" x1="52.32" y1="282.44" x2="50.66" y2="286.18"/>
			<line fill="none" stroke="#FFFFFF" stroke-miterlimit="10" x1="73.63" y1="279.62" x2="71.97" y2="283.35"/>
			<polygon fill="none" stroke="#FFFFFF" stroke-miterlimit="10" points="31.08,289.21 19.46,290.75 21.33,286.55 32.96,285.01 			
				"/>
		</g>
		<polygon fill="none" stroke="#FFFFFF" stroke-miterlimit="10" points="245.29,368.93 -98.5,414.49 59.91,58.63 403.71,13.07 		"/>
	</g>
	<g>
		<g>
			<path fill="none" stroke="#FFFFFF" stroke-miterlimit="10" d="M305.58,233.5c24.34-3.22,52.53-24.87,62.98-48.34
				s-0.81-39.88-25.15-36.66"/>
		</g>
		<g>
			
				<ellipse transform="matrix(0.7783 -0.6279 0.6279 0.7783 44.8762 428.3768)" fill="none" stroke="#FFFFFF" stroke-miterlimit="10" cx="629.07" cy="150.64" rx="4.94" ry="2.76"/>
			<path fill="none" stroke="#FFFFFF" stroke-miterlimit="10" d="M642.17,121.22c-16.85,2.23-36.37,17.21-43.6,33.46
				s0.56,27.61,17.41,25.38"/>
			<path fill="none" stroke="#FFFFFF" stroke-miterlimit="10" d="M544.58,121.41c-24.34,3.22-52.53,24.87-62.98,48.34
				s0.81,39.88,25.15,36.66"/>
			<line fill="none" stroke="#FFFFFF" stroke-miterlimit="10" x1="648.25" y1="127" x2="628.29" y2="171.84"/>
			<line fill="none" stroke="#FFFFFF" stroke-miterlimit="10" x1="633.22" y1="150.53" x2="638.06" y2="149.89"/>
			<line fill="none" stroke="#FFFFFF" stroke-miterlimit="10" x1="641.68" y1="121.28" x2="652.82" y2="119.81"/>
			<line fill="none" stroke="#FFFFFF" stroke-miterlimit="10" x1="615.01" y1="180.19" x2="626.63" y2="178.65"/>
			<g>
				<path fill="none" stroke="#FFFFFF" stroke-miterlimit="10" d="M692.05-3.61C603.27,8.16,500.39,87.11,462.27,172.74
					s2.95,145.51,91.74,133.74"/>
				<line fill="none" stroke="#FFFFFF" stroke-miterlimit="10" x1="689.5" y1="-3.27" x2="737.54" y2="-9.63"/>
				<line fill="none" stroke="#FFFFFF" stroke-miterlimit="10" x1="548.91" y1="307.16" x2="599.5" y2="300.46"/>
			</g>
			<polygon fill="none" stroke="#FFFFFF" stroke-miterlimit="10" points="498.98,222.81 642.31,203.82 694.28,87.07 550.95,106.06 
							"/>
			<line fill="none" stroke="#FFFFFF" stroke-miterlimit="10" x1="649.67" y1="89.02" x2="648" y2="92.76"/>
			<line fill="none" stroke="#FFFFFF" stroke-miterlimit="10" x1="598.34" y1="95.82" x2="596.68" y2="99.56"/>
			<line fill="none" stroke="#FFFFFF" stroke-miterlimit="10" x1="577.03" y1="98.65" x2="575.37" y2="102.38"/>
			<polygon fill="none" stroke="#FFFFFF" stroke-miterlimit="10" points="615.84,97.46 627.46,95.92 629.33,91.72 617.71,93.26 			
				"/>
			<line fill="none" stroke="#FFFFFF" stroke-miterlimit="10" x1="595.61" y1="210.44" x2="593.95" y2="214.18"/>
			<line fill="none" stroke="#FFFFFF" stroke-miterlimit="10" x1="544.29" y1="217.25" x2="542.62" y2="220.98"/>
			<line fill="none" stroke="#FFFFFF" stroke-miterlimit="10" x1="522.98" y1="220.07" x2="521.32" y2="223.8"/>
			<polyline fill="none" stroke="#FFFFFF" stroke-miterlimit="10" points="563.66,214.68 561.78,218.88 573.41,217.34 
				575.28,213.14 			"/>
		</g>
		<polygon fill="none" stroke="#FFFFFF" stroke-miterlimit="10" points="245.29,368.93 589.09,323.37 747.5,-32.49 403.71,13.07 		
			"/>
	</g>
</g>
<g opacity="0.1">
	<path fill="#FFFFFF" d="M932.01,279.62l2.51-0.78c0.15,0.49,0.39,0.92,0.74,1.26c0.54,0.53,1.26,0.8,2.08,0.8
		c0.4,0,0.83-0.07,1.27-0.2c2.33-0.72,4.73-3.31,5.45-5.89c0.45-1.59,0.2-3-0.69-3.86c-0.81-0.79-2.03-1-3.35-0.59
		c-2.27,0.7-4.59,3.17-5.38,5.68l-1.79,0.55l6.08-21.6l-2.54-0.72l-13.19,46.89l2.54,0.72L932.01,279.62z M937.12,276.97
		c0.48-1.71,2.21-3.62,3.69-4.08c0.21-0.07,0.38-0.09,0.49-0.09c0.14,0,0.21,0.03,0.23,0.05c0.07,0.07,0.22,0.44-0.01,1.25
		c-0.48,1.71-2.21,3.62-3.69,4.08c-0.47,0.15-0.69,0.07-0.73,0.04C937.04,278.15,936.89,277.78,937.12,276.97z"/>
	<path fill="#FFFFFF" d="M948.37,246.02L948.37,246.02c6.26-1.94,11.5-1.27,14.73,1.88c3.79,3.69,4.63,10.55,2.31,18.8
		c-4.67,16.59-20.43,33.78-35.14,38.34l0,0l-9.55,2.96l0.78,2.52l10.42-3.23l-0.01-0.02c15.21-5.17,31.25-22.83,36.04-39.85
		c2.59-9.22,1.5-17.02-3.01-21.41c-3.88-3.78-9.88-4.71-16.92-2.64l0-0.01l-9.99,3.09l0.78,2.52L948.37,246.02z"/>
	<path fill="#FFFFFF" d="M1470.06,139.71c2.02,0,4.2-0.33,6.48-0.97l0.01,0.03l0.87-0.27c0,0,0,0,0,0v0l9.55-2.96l-0.78-2.52
		l-9.56,2.96c-6.26,1.94-11.5,1.27-14.73-1.88c-3.79-3.69-4.63-10.55-2.31-18.8c4.67-16.59,20.43-33.78,35.14-38.34v0l9.56-2.96
		l-0.78-2.52l-9.99,3.09l0,0.01c-15.34,4.98-31.63,22.81-36.47,40c-2.59,9.22-1.5,17.02,3.01,21.41
		C1462.59,138.45,1466.02,139.71,1470.06,139.71z"/>
	<path fill="#FFFFFF" d="M1492.72,103.35l-2.09,0.65c-0.05-0.85-0.35-1.58-0.89-2.11c-0.81-0.79-2.03-1-3.35-0.59
		c-2.33,0.72-4.73,3.31-5.46,5.89c-0.45,1.59-0.2,3,0.69,3.86c0.54,0.53,1.26,0.8,2.08,0.8c0.4,0,0.83-0.07,1.27-0.2
		c1.96-0.61,3.95-2.53,4.97-4.66l1.92-0.59l-5.8,20.62l2.54,0.72l13.19-46.89l-2.54-0.72L1492.72,103.35z M1487.88,105.03
		c-0.48,1.71-2.21,3.62-3.69,4.08c-0.48,0.15-0.69,0.07-0.73,0.04c-0.07-0.07-0.22-0.44,0.01-1.25c0.48-1.71,2.21-3.62,3.69-4.08
		c0.21-0.07,0.38-0.09,0.49-0.09c0.14,0,0.21,0.03,0.23,0.05C1487.96,103.85,1488.11,104.22,1487.88,105.03z"/>
	<path fill="#FFFFFF" d="M1263.78,3.85L1263.78,3.85L955.42,99.27l-35.18,125.04l0,0l-17.6,62.57L849.85,474.5l311.36-96.35l0,0
		l308.36-95.42l104.91-372.89l0.66-2.34L1263.78,3.85z M1211,191.46l-12.07,42.92c-8.96,2.61-16.47,1.54-21.18-3.05
		c-5.63-5.49-6.91-15.6-3.49-27.74c6.54-23.25,28.09-47.32,48.8-54.97L1211,191.46z M1214,190.54l12.07-42.92
		c8.96-2.61,16.47-1.54,21.18,3.05c5.63,5.49,6.91,15.6,3.49,27.74c-6.54,23.25-28.09,47.32-48.8,54.97L1214,190.54z M950.84,125.3
		l39.91-12.35v0c35.08-10.86,64.64-6.85,83.24,11.27c21.5,20.95,26.48,59.1,13.67,104.66c-25.05,89.04-109.8,181.39-188.93,205.88
		l-38.28,11.85l27.6-98.08l38.69-11.97l-0.58,2.06l2.54,0.72l1.04-3.7l16.74-5.18l-0.95,3.37l10.42-3.23l0.95-3.37l15.87-4.91
		l-0.58,2.06l2.54,0.72l1.04-3.7l16.11-4.98l-0.58,2.06l2.54,0.72l1.04-3.7l21.72-6.72l4.82-17.13
		c21.84-7.37,44.89-32.74,51.78-57.2c3.69-13.1,2.16-24.16-4.19-30.35c-5.06-4.93-12.72-6.39-21.77-4.23l4.57-16.24l-21.72,6.72
		l0.58-2.06l-2.54-0.72l-1.04,3.7l-16.11,4.98l0.58-2.06l-2.54-0.72l-1.04,3.7l-15.87,4.91l0.81-2.88l-10.42,3.23l-0.81,2.88
		l-16.74,5.18l0.58-2.06l-2.54-0.72l-1.04,3.7l-38.69,11.97L950.84,125.3z M922.4,226.41l125.55-38.85l-33.5,119.09L888.89,345.5
		l16.75-59.54L922.4,226.41z M1046.41,202.78c8.77-2.45,16.11-1.34,20.75,3.18c5.63,5.49,6.91,15.6,3.49,27.74
		c-6.49,23.08-27.78,46.97-48.36,54.8L1046.41,202.78z M859.59,449.64l39.91-12.35v0c0,0,0,0,0,0l4.57-1.42l-0.02-0.07
		c78.56-26.77,161.36-118.1,186.14-206.2c13.09-46.52,7.85-85.62-14.36-107.27c-18.91-18.43-48.52-22.86-83.57-12.59l-0.01-0.03
		l-40.56,12.55l5.88-20.91l305.35-94.49l-39.01,138.64c-21.97,7.18-45.29,32.72-52.22,57.35c-3.69,13.1-2.16,24.16,4.19,30.35
		c3.54,3.45,8.36,5.21,14.04,5.21c2.56,0,5.29-0.36,8.15-1.08l-39.02,138.7l-305.35,94.49L859.59,449.64z M1434.24,269.05
		c-35.07,10.85-64.63,6.85-83.23-11.27c-21.5-20.95-26.48-59.1-13.67-104.66c25.05-89.04,109.81-181.4,188.93-205.88v0l38.28-11.84
		l-27.6,98.08l-38.69,11.97l0.58-2.06l-2.54-0.72l-1.04,3.7l-16.74,5.18l0.81-2.88l-10.42,3.23l-0.81,2.88l-15.87,4.91l0.58-2.06
		l-2.54-0.72l-1.04,3.7l-16.1,4.98l0.58-2.06l-2.54-0.72l-1.04,3.7l-21.71,6.72l-4.54,16.15c-21.84,7.37-44.9,32.74-51.78,57.2
		c-3.69,13.1-2.16,24.16,4.19,30.35c3.54,3.45,8.36,5.21,14.04,5.21c2.43,0,5.02-0.32,7.73-0.97l-4.84,17.2l21.72-6.72l-0.58,2.06
		l2.54,0.72l1.04-3.71l16.1-4.98l-0.58,2.06l2.54,0.72l1.04-3.7l15.87-4.91l-0.95,3.37l10.42-3.23l0.95-3.37l16.74-5.18l-0.58,2.06
		l2.54,0.72l1.04-3.71l38.69-11.97l-27.6,98.08L1434.24,269.05z M1519.36,96.04l-16.75,59.54l-125.55,38.85l33.5-119.09
		l125.55-38.85L1519.36,96.04z M1378.87,178.24c-8.77,2.45-16.11,1.34-20.75-3.18c-5.63-5.49-6.91-15.6-3.49-27.74
		c6.49-23.08,27.78-46.97,48.36-54.8L1378.87,178.24z M1565.41-67.64l-42.2,13.06l0.01,0.03
		c-79.23,25.77-163.39,118.01-188.42,206.95c-13.09,46.52-7.85,85.62,14.36,107.27c12.25,11.94,28.99,18.01,48.79,18.01
		c10.09,0,20.98-1.58,32.47-4.76l0.02,0.07l4.57-1.41c0,0,0,0,0.01,0v0l38.28-11.84l-5.88,20.91l-305.35,94.49l39.01-138.64
		c21.97-7.18,45.29-32.72,52.22-57.35c3.69-13.1,2.16-24.16-4.19-30.35c-5.14-5.01-12.96-6.44-22.19-4.13l39.02-138.71l305.35-94.49
		L1565.41-67.64z"/>
</g>
</svg>
