<?xml version="1.0" encoding="utf-8"?>
<!-- Generator: Adobe Illustrator 25.2.3, SVG Export Plug-In . SVG Version: 6.00 Build 0)  -->
<svg version="1.1" id="Layer_1" xmlns="http://www.w3.org/2000/svg" xmlns:xlink="http://www.w3.org/1999/xlink" x="0px" y="0px"
	 viewBox="0 0 310.1 90.72" enable-background="new 0 0 310.1 90.72" xml:space="preserve">
<g>
	<path fill="#FFFFFF" d="M0.02,0.54h11.2c1.55,0.02,3.07,0.22,4.55,0.61c1.48,0.39,2.8,0.99,3.96,1.8s2.08,1.85,2.77,3.1
		s1.03,2.77,1.01,4.53c-0.02,0.98-0.18,1.88-0.48,2.69c-0.3,0.81-0.71,1.54-1.23,2.17c-0.53,0.66-1.13,1.21-1.77,1.66
		c-0.65,0.45-1.43,0.87-2.34,1.27v0.08c0.95,0.22,1.86,0.63,2.74,1.22s1.6,1.23,2.17,1.94c0.6,0.78,1.07,1.65,1.41,2.61
		c0.34,0.97,0.5,2.01,0.5,3.13c0.02,1.76-0.32,3.31-1.01,4.66c-0.69,1.35-1.61,2.47-2.77,3.36c-1.16,0.92-2.49,1.61-4,2.1
		c-1.51,0.48-3.07,0.73-4.67,0.75H0V0.54H0.02z M11.51,16.6c0.9-0.02,1.78-0.16,2.64-0.43c0.86-0.27,1.63-0.66,2.3-1.18
		c0.67-0.5,1.22-1.12,1.63-1.86s0.62-1.6,0.62-2.59c0-1.05-0.2-1.95-0.61-2.69s-0.94-1.35-1.62-1.84c-0.69-0.47-1.48-0.81-2.37-1.04
		c-0.89-0.22-1.8-0.34-2.73-0.36H4.82v11.98h6.69V16.6z M4.83,34.15h7.37c1-0.02,1.95-0.18,2.85-0.5c0.9-0.32,1.69-0.76,2.38-1.33
		c0.69-0.57,1.24-1.27,1.64-2.1c0.4-0.83,0.61-1.77,0.61-2.82c0.02-1.07-0.16-2.02-0.53-2.85c-0.37-0.83-0.88-1.54-1.54-2.12
		c-0.66-0.57-1.42-1.01-2.3-1.32s-1.83-0.48-2.85-0.52H4.83V34.15z"/>
	<path fill="#FFFFFF" d="M37.28,28.45l-3.03,9.75h-4.79L41.62,0.53h4.01L57.58,38.2h-4.76l-2.98-9.75H37.28z M48.59,24.29
		L43.62,7.94l-5.05,16.35H48.59z"/>
	<path fill="#FFFFFF" d="M82.6,25.76c-0.53-0.79-1.2-1.47-2.03-2.02c-0.83-0.53-1.74-0.98-2.73-1.35c-0.99-0.36-1.94-0.69-2.86-0.98
		c-1.33-0.43-2.68-0.95-4.05-1.57c-1.37-0.61-2.62-1.35-3.74-2.21c-1.14-0.88-2.07-1.92-2.78-3.12c-0.72-1.2-1.07-2.61-1.07-4.23
		c0-1.62,0.36-3.07,1.07-4.35c0.72-1.28,1.65-2.35,2.81-3.23s2.47-1.55,3.93-2.01C72.62,0.23,74.09,0,75.57,0
		c1.64,0,3.22,0.27,4.73,0.81c1.52,0.54,2.86,1.31,4.04,2.29c1.17,0.98,2.11,2.17,2.82,3.57s1.08,2.96,1.11,4.68h-4.92
		c-0.14-1.09-0.41-2.07-0.8-2.96c-0.4-0.89-0.92-1.65-1.58-2.29c-0.66-0.64-1.44-1.13-2.34-1.49s-1.93-0.53-3.07-0.53
		c-0.91,0-1.81,0.13-2.68,0.39s-1.64,0.65-2.32,1.16c-0.69,0.52-1.24,1.16-1.64,1.91c-0.41,0.76-0.61,1.64-0.61,2.64
		c0.02,1.09,0.29,2.01,0.83,2.76c0.53,0.75,1.22,1.38,2.04,1.9c0.81,0.52,1.69,0.95,2.65,1.29c0.96,0.35,1.86,0.65,2.7,0.91
		c1.4,0.43,2.79,0.95,4.19,1.57c1.4,0.61,2.67,1.39,3.83,2.34c1.14,0.88,2.06,1.96,2.76,3.23s1.05,2.75,1.05,4.42
		c0,1.69-0.38,3.17-1.13,4.42c-0.75,1.26-1.72,2.3-2.91,3.13c-1.19,0.85-2.54,1.48-4.04,1.9c-1.5,0.42-3,0.63-4.5,0.63
		c-1.79,0-3.56-0.3-5.29-0.91c-1.73-0.6-3.24-1.48-4.52-2.61c-1.14-0.98-2.04-2.13-2.7-3.46c-0.66-1.32-1.02-2.79-1.07-4.41h4.89
		c0.16,1.17,0.47,2.21,0.96,3.12c0.48,0.91,1.1,1.67,1.86,2.29c0.76,0.64,1.63,1.12,2.63,1.44c0.99,0.32,2.07,0.48,3.25,0.48
		c0.93,0,1.85-0.12,2.76-0.35c0.91-0.23,1.71-0.6,2.42-1.1c0.71-0.48,1.28-1.1,1.73-1.85s0.67-1.64,0.67-2.68
		C83.39,27.53,83.12,26.56,82.6,25.76z"/>
	<path fill="#FFFFFF" d="M100.31,25.48v12.73h-4.89V0.54h4.89v18.4l3.65-4.55l11.05-13.84h5.82l-13.17,16.48l14.05,21.19h-5.82
		L104.5,20.73L100.31,25.48z"/>
	<path fill="#FFFFFF" d="M132.27,20.79v13.35h18.35v4.06h-23.13V0.54h22.9v4.09h-18.12v12.11H148v4.06h-15.73V20.79z"/>
	<path fill="#FFFFFF" d="M172.84,4.62v33.59h-4.66V4.62h-11.64V0.53h27.94v4.09H172.84z"/>
	<path fill="#FFFFFF" d="M190.82,0.54h11.2c1.55,0.02,3.07,0.22,4.55,0.61c1.48,0.39,2.8,0.99,3.96,1.8s2.08,1.85,2.77,3.1
		s1.03,2.77,1.01,4.53c-0.02,0.98-0.18,1.88-0.48,2.69c-0.3,0.81-0.71,1.54-1.23,2.17c-0.53,0.66-1.13,1.21-1.77,1.66
		c-0.65,0.45-1.43,0.87-2.34,1.27v0.08c0.95,0.22,1.86,0.63,2.74,1.22s1.6,1.23,2.17,1.94c0.6,0.78,1.07,1.65,1.41,2.61
		c0.34,0.97,0.5,2.01,0.5,3.13c0.02,1.76-0.32,3.31-1.01,4.66s-1.61,2.47-2.77,3.36c-1.16,0.92-2.49,1.61-4,2.1
		c-1.51,0.48-3.07,0.73-4.67,0.75H190.8V0.54H190.82z M202.31,16.6c0.9-0.02,1.78-0.16,2.64-0.43c0.86-0.27,1.63-0.66,2.3-1.18
		c0.67-0.5,1.22-1.12,1.63-1.86s0.62-1.6,0.62-2.59c0-1.05-0.2-1.95-0.61-2.69c-0.41-0.74-0.94-1.35-1.62-1.84
		c-0.69-0.47-1.48-0.81-2.37-1.04c-0.89-0.22-1.8-0.34-2.73-0.36h-6.55v11.98h6.69V16.6z M195.63,34.15H203
		c1-0.02,1.95-0.18,2.85-0.5s1.69-0.76,2.38-1.33c0.69-0.57,1.24-1.27,1.64-2.1c0.4-0.83,0.61-1.77,0.61-2.82
		c0.02-1.07-0.16-2.02-0.53-2.85c-0.37-0.83-0.88-1.54-1.54-2.12c-0.66-0.57-1.42-1.01-2.3-1.32c-0.88-0.31-1.83-0.48-2.85-0.52
		h-7.63V34.15z"/>
	<path fill="#FFFFFF" d="M228.08,28.45l-3.03,9.75h-4.79l12.16-37.67h4.01l11.95,37.67h-4.76l-2.98-9.75H228.08z M239.39,24.29
		l-4.97-16.35l-5.05,16.35H239.39z"/>
	<path fill="#FFFFFF" d="M278.3,34.15v4.06h-23.21V0.54h4.79v33.61H278.3z"/>
	<path fill="#FFFFFF" d="M310.1,34.15v4.06h-23.21V0.54h4.79v33.61H310.1z"/>
	<path fill="#FFFFFF" d="M23.9,86.15v4.06H0.69V52.53h4.79v33.61L23.9,86.15L23.9,86.15z"/>
	<path fill="#FFFFFF" d="M54.64,52.53v4.17h-9.03v29.37h9.03v4.14H31.87v-4.14h8.82V56.7h-8.82v-4.17H54.64z"/>
	<path fill="#FFFFFF" d="M86.18,87.14c-0.66,0.56-1.34,1.05-2.04,1.46c-1.21,0.72-2.51,1.26-3.91,1.62s-2.86,0.52-4.4,0.5
		c-1.55-0.02-2.98-0.25-4.28-0.71s-2.47-1.09-3.51-1.9c-1.04-0.79-1.94-1.73-2.72-2.82s-1.42-2.27-1.94-3.54
		c-0.54-1.26-0.94-2.58-1.2-3.97s-0.41-2.79-0.43-4.21V69.2c0.02-1.4,0.14-2.79,0.38-4.18c0.23-1.39,0.59-2.72,1.07-4
		c0.48-1.28,1.09-2.46,1.81-3.56s1.6-2.05,2.61-2.86c1-0.79,2.14-1.42,3.42-1.89s2.71-0.7,4.3-0.7c1.76,0,3.38,0.27,4.86,0.82
		c1.48,0.54,2.78,1.32,3.88,2.32c1.1,1.02,1.99,2.24,2.67,3.66c0.67,1.42,1.09,3.01,1.24,4.77h-4.73c-0.19-1.09-0.48-2.09-0.88-3.01
		s-0.91-1.71-1.55-2.37c-0.66-0.66-1.43-1.17-2.33-1.54c-0.9-0.37-1.94-0.56-3.13-0.56c-1.14,0-2.15,0.19-3.03,0.58
		s-1.65,0.91-2.3,1.57s-1.2,1.42-1.63,2.29c-0.43,0.87-0.79,1.79-1.06,2.75c-0.28,0.97-0.47,1.95-0.6,2.95
		c-0.12,1-0.18,1.97-0.18,2.9v4.42c0.02,0.95,0.1,1.93,0.25,2.94s0.38,2,0.69,2.96c0.31,0.97,0.71,1.88,1.19,2.74
		s1.07,1.62,1.76,2.28c0.67,0.66,1.46,1.18,2.35,1.57c0.9,0.39,1.92,0.59,3.05,0.61c0.66,0.02,1.34-0.01,2.06-0.08
		s1.41-0.21,2.08-0.41s1.3-0.49,1.89-0.84s1.08-0.82,1.48-1.38l0.05-8.46h-7.66v-4.04h12.21l0.08,13.82
		C87.46,85.96,86.84,86.58,86.18,87.14z"/>
	<path fill="#FFFFFF" d="M114.57,90.21V72.79H99.12V90.2h-4.5V52.53h4.5v16.2h15.45v-16.2h4.53V90.2L114.57,90.21L114.57,90.21z"/>
	<path fill="#FFFFFF" d="M141.04,56.62V90.2h-4.66V56.62h-11.64v-4.09h27.94v4.09H141.04z"/>
	<path fill="#FFFFFF" d="M181.84,52.53v4.17h-9.03v29.37h9.03v4.14h-22.77v-4.14h8.82V56.7h-8.82v-4.17H181.84z"/>
	<path fill="#FFFFFF" d="M209.6,90.21l-14.62-28.15l-0.08,28.15h-4.84V52.53h4.86l14.62,28.1l0.08-28.1h4.84V90.2L209.6,90.21
		L209.6,90.21z"/>
	<path fill="#FFFFFF" d="M245.18,87.14c-0.66,0.56-1.34,1.05-2.04,1.46c-1.21,0.72-2.51,1.26-3.91,1.62s-2.86,0.52-4.4,0.5
		c-1.55-0.02-2.98-0.25-4.28-0.71s-2.47-1.09-3.51-1.9c-1.04-0.79-1.94-1.73-2.72-2.82s-1.42-2.27-1.94-3.54
		c-0.54-1.26-0.94-2.58-1.2-3.97s-0.41-2.79-0.43-4.21V69.2c0.02-1.4,0.14-2.79,0.38-4.18c0.23-1.39,0.59-2.72,1.07-4
		s1.09-2.46,1.81-3.56s1.6-2.05,2.61-2.86c1-0.79,2.14-1.42,3.42-1.89s2.71-0.7,4.3-0.7c1.76,0,3.38,0.27,4.86,0.82
		c1.48,0.54,2.78,1.32,3.88,2.32c1.1,1.02,1.99,2.24,2.67,3.66c0.67,1.42,1.09,3.01,1.24,4.77h-4.73c-0.19-1.09-0.48-2.09-0.88-3.01
		s-0.91-1.71-1.55-2.37c-0.66-0.66-1.43-1.17-2.33-1.54s-1.94-0.56-3.13-0.56c-1.14,0-2.15,0.19-3.03,0.58s-1.65,0.91-2.3,1.57
		s-1.2,1.42-1.63,2.29s-0.79,1.79-1.06,2.75c-0.28,0.97-0.47,1.95-0.6,2.95c-0.12,1-0.18,1.97-0.18,2.9v4.42
		c0.02,0.95,0.1,1.93,0.25,2.94s0.38,2,0.69,2.96c0.31,0.97,0.71,1.88,1.19,2.74s1.07,1.62,1.76,2.28c0.67,0.66,1.46,1.18,2.35,1.57
		c0.9,0.39,1.92,0.59,3.05,0.61c0.66,0.02,1.34-0.01,2.06-0.08s1.41-0.21,2.08-0.41s1.3-0.49,1.89-0.84s1.08-0.82,1.48-1.38
		l0.05-8.46h-7.66v-4.04h12.21l0.08,13.82C246.46,85.96,245.84,86.58,245.18,87.14z"/>
</g>
</svg>
