<?xml version="1.0" encoding="utf-8"?>
<!-- Generator: Adobe Illustrator 25.2.3, SVG Export Plug-In . SVG Version: 6.00 Build 0)  -->
<svg version="1.1" id="Layer_1" xmlns="http://www.w3.org/2000/svg" xmlns:xlink="http://www.w3.org/1999/xlink" x="0px" y="0px"
	 viewBox="0 0 283.3 283.31" enable-background="new 0 0 283.3 283.31" xml:space="preserve">
<g>
	<path fill="#FFFFFF" d="M283.3,141.65c0.06,78.13-63.45,141.76-141.81,141.66C63.09,283.21-0.14,219.75,0,141.11
		C0.14,63.21,63.87-0.93,143.43,0.01C220.84,0.92,283.34,64.05,283.3,141.65z M79.51,113.49c0.21,0.31,0.33,0.52,0.47,0.71
		c14.47,20.18,29.88,39.6,46.63,57.94c9.82,10.75,20.04,21.08,30.94,30.73c13.05,11.55,26.83,22.09,42.32,30.22
		c7.59,3.98,15.48,7.24,23.84,9.24c0.54,0.13,1.35,0.09,1.72-0.23c2.74-2.32,5.48-4.65,8.07-7.14c2.07-1.98,3.94-4.17,5.86-6.3
		c6.12-6.79,11.41-14.19,15.94-22.12c7.42-12.98,12.46-26.83,15.13-41.55c0.82-4.53,0.86-4.51-2.77-7.31
		c-5.08-3.92-10.79-6.65-16.69-9.06c-10.94-4.46-22.28-7.69-33.79-10.18c-15.55-3.37-31.2-6.3-46.79-9.5
		c-11.4-2.34-22.61-5.32-33.31-9.99c-12.63-5.51-23.15-13.61-30.86-25.16c-0.13-0.2-0.21-0.43-0.31-0.61
		C96.64,99.6,87.88,106.22,79.51,113.49z M213.81,250.8c-0.45-0.18-0.7-0.29-0.96-0.37c-6.43-2.12-12.56-4.91-18.53-8.08
		c-15.15-8.05-28.76-18.28-41.69-29.47c-12.85-11.13-24.81-23.17-36.22-35.77c-13.04-14.4-25.32-29.43-36.85-45.06
		c-2.73-3.69-5.41-7.42-8.14-11.17c-0.18,0.14-0.34,0.24-0.48,0.37c-6.78,6.46-13.13,13.31-18.9,20.69
		c-0.52,0.67-0.34,1.09,0.02,1.67c2.88,4.56,5.79,9.1,8.59,13.7c5.58,9.17,10,18.83,12.15,29.41c1.81,8.91,3.42,17.86,5.23,26.77
		c1.68,8.26,3.86,16.39,7.14,24.2c5.18,12.32,13.07,22.36,24.65,29.26c2.17,1.3,4.27,2.72,6.89,3.23c12.49,2.4,25.06,2.97,37.7,1.76
		c15.33-1.47,29.95-5.56,43.83-12.23C203.57,257.12,208.71,254.23,213.81,250.8z M272.36,147.49c0.03-0.48,0.08-0.9,0.1-1.33
		c0.28-9.98-0.46-19.88-2.37-29.69c-3.85-19.78-12.01-37.64-24.01-53.76c-2.5-3.36-5.38-6.43-8.11-9.6
		c-0.35-0.41-0.85-0.72-1.34-0.96c-4.87-2.4-10.07-3.54-15.44-3.97c-8.2-0.65-16.27,0.34-24.26,2.08
		c-16.02,3.49-31.09,9.6-45.81,16.65c-9.84,4.71-19.39,9.96-28.73,15.59c-2.52,1.52-4.99,3.12-7.54,4.71
		c0.2,0.32,0.31,0.53,0.44,0.72c3.13,4.63,6.86,8.72,11.21,12.23c6.48,5.23,13.87,8.79,21.65,11.58c12.36,4.44,25.21,6.88,38.06,9.3
		c14.94,2.81,29.88,5.66,44.58,9.6c10.97,2.94,21.76,6.37,31.95,11.47C265.98,143.74,269.08,145.64,272.36,147.49z M220.32,37.33
		c-0.06-0.18-0.06-0.28-0.11-0.32c-0.18-0.15-0.38-0.29-0.58-0.43c-8.72-6.51-18.11-11.82-28.17-15.96
		c-12.73-5.24-25.95-8.37-39.68-9.43c-7.03-0.54-14.05-0.52-21.07,0.07c-0.56,0.05-1.18,0.29-1.64,0.62
		c-3.6,2.64-7.31,5.17-10.73,8.04c-5.69,4.78-10.67,10.23-14.22,16.84c-4.12,7.68-5.44,15.7-2.31,24.01
		c1.85,4.93,4.14,9.69,6.25,14.51c0.38,0.86,0.85,1.68,1.3,2.57c2.11-1.32,4.09-2.58,6.1-3.81c18.93-11.56,38.58-21.63,59.61-28.84
		C189.7,40.22,204.61,36.71,220.32,37.33z M99.98,83.81c-2.7-6.23-5.57-12.51-8.16-18.9c-2.5-6.17-3.01-12.62-1.94-19.19
		c1.39-8.58,5.27-16.03,10.54-22.8c1.95-2.51,4.12-4.86,6.24-7.35c-0.27,0.06-0.5,0.11-0.72,0.17c-11.95,3.37-23.18,8.38-33.7,14.96
		c-7.74,4.85-14.9,10.45-21.49,16.78c-0.77,0.74-1.23,1.48-1.1,2.59c0.11,0.87,0.02,1.76,0.11,2.63c0.77,7.09,3.03,13.74,5.88,20.23
		c3.46,7.88,7.58,15.4,12.05,22.74c1.8,2.96,3.69,5.86,5.44,8.64C82.18,97.41,91.12,90.58,99.98,83.81z M44.79,152.29
		c-0.25,0.34-0.41,0.51-0.53,0.71c-3.82,6.02-7.13,12.29-9.78,18.91c-4.05,10.11-6.36,20.58-6.54,31.49
		c-0.02,1.39,0.03,3.01,0.69,4.15c5.99,10.4,13.34,19.77,21.98,28.12c8.73,8.44,18.44,15.53,29.11,21.31
		c1.66,0.9,3.37,1.72,5.06,2.58c-0.02-0.36-0.14-0.55-0.28-0.74c-4.58-6.12-8.12-12.81-10.82-19.94
		c-2.32-6.13-4.27-12.36-5.53-18.81c-1-5.09-2.17-10.14-3.13-15.23c-1.13-6-1.95-12.07-3.21-18.04c-1.54-7.34-4.79-14.04-8.54-20.48
		C50.54,161.64,47.67,157.04,44.79,152.29z M15.12,108.1c7.91,0.18,13.11,3.52,17.53,8.22c3.05,3.24,5.68,6.89,8.39,10.43
		c1.52,1.98,2.81,4.14,4.09,6.03c6.67-7.12,13.32-14.21,19.99-21.32C54.92,95.25,45,78.68,39.62,59.69
		C28.06,74.19,19.88,90.22,15.12,108.1z M18.63,186.49c3.52-16.21,10.5-30.71,19.87-44.27c-3.67-5.26-7.23-10.52-10.95-15.66
		c-1.95-2.7-4.37-4.98-7.43-6.47c-2.09-1.02-4.26-1.27-6.52-0.66c-0.68,0.18-1.06,0.49-1.15,1.28c-0.27,2.5-0.7,4.98-0.96,7.48
		c-1.82,17.79-0.11,35.25,5.16,52.34C17.26,182.53,17.97,184.5,18.63,186.49z"/>
</g>
</svg>
