<?xml version="1.0" encoding="utf-8"?>
<!-- Generator: Adobe Illustrator 25.2.3, SVG Export Plug-In . SVG Version: 6.00 Build 0)  -->
<svg version="1.1" id="Layer_1" xmlns="http://www.w3.org/2000/svg" xmlns:xlink="http://www.w3.org/1999/xlink" x="0px" y="0px"
	 viewBox="0 0 456.13 120" enable-background="new 0 0 456.13 120" xml:space="preserve">
<g>
	<path fill="#FFFFFF" d="M120,60c0.03,33.09-26.88,60.05-60.07,60C26.72,119.96-0.06,93.08,0,59.77C0.06,26.77,27.05-0.39,60.75,0
		C93.54,0.39,120.02,27.13,120,60z M33.68,48.07c0.09,0.13,0.14,0.22,0.2,0.3c6.13,8.55,12.66,16.77,19.75,24.54
		c4.16,4.55,8.49,8.93,13.11,13.02c5.53,4.89,11.36,9.36,17.93,12.8c3.21,1.69,6.56,3.07,10.1,3.91c0.23,0.06,0.57,0.04,0.73-0.1
		c1.16-0.98,2.32-1.97,3.42-3.02c0.88-0.84,1.67-1.77,2.48-2.67c2.59-2.88,4.83-6.01,6.75-9.37c3.14-5.5,5.28-11.36,6.41-17.6
		c0.35-1.92,0.36-1.91-1.17-3.1c-2.15-1.66-4.57-2.82-7.07-3.84c-4.63-1.89-9.44-3.26-14.31-4.31c-6.59-1.43-13.22-2.67-19.82-4.02
		c-4.83-0.99-9.58-2.25-14.11-4.23c-5.35-2.33-9.81-5.76-13.07-10.66c-0.06-0.08-0.09-0.18-0.13-0.26
		C40.93,42.19,37.22,44.99,33.68,48.07z M90.57,106.23c-0.19-0.08-0.3-0.12-0.41-0.16c-2.72-0.9-5.32-2.08-7.85-3.42
		c-6.42-3.41-12.18-7.74-17.66-12.48c-5.44-4.71-10.51-9.81-15.34-15.15c-5.52-6.1-10.73-12.47-15.61-19.09
		c-1.16-1.56-2.29-3.14-3.45-4.73c-0.08,0.06-0.14,0.1-0.2,0.16c-2.87,2.74-5.56,5.64-8.01,8.76c-0.22,0.28-0.14,0.46,0.01,0.71
		c1.22,1.93,2.45,3.85,3.64,5.8c2.36,3.88,4.24,7.98,5.15,12.46c0.77,3.77,1.45,7.57,2.22,11.34c0.71,3.5,1.64,6.94,3.02,10.25
		c2.19,5.22,5.54,9.47,10.44,12.39c0.92,0.55,1.81,1.15,2.92,1.37c5.29,1.02,10.61,1.26,15.97,0.75c6.49-0.62,12.69-2.36,18.57-5.18
		C86.23,108.91,88.41,107.69,90.57,106.23z M115.37,62.47c0.01-0.2,0.03-0.38,0.04-0.56c0.12-4.23-0.19-8.42-1-12.58
		c-1.63-8.38-5.09-15.94-10.17-22.77c-1.06-1.42-2.28-2.72-3.44-4.07c-0.15-0.17-0.36-0.3-0.57-0.41c-2.06-1.02-4.27-1.5-6.54-1.68
		c-3.47-0.28-6.89,0.14-10.28,0.88c-6.79,1.48-13.17,4.07-19.4,7.05c-4.17,2-8.21,4.22-12.17,6.6c-1.07,0.64-2.11,1.32-3.19,2
		c0.08,0.14,0.13,0.22,0.19,0.3c1.33,1.96,2.91,3.69,4.75,5.18c2.74,2.22,5.88,3.72,9.17,4.91c5.24,1.88,10.68,2.91,16.12,3.94
		c6.33,1.19,12.66,2.4,18.88,4.07c4.65,1.25,9.22,2.7,13.53,4.86C112.66,60.89,113.98,61.69,115.37,62.47z M93.32,15.81
		c-0.03-0.08-0.03-0.12-0.05-0.14c-0.08-0.06-0.16-0.12-0.25-0.18c-3.69-2.76-7.67-5.01-11.93-6.76
		c-5.39-2.22-10.99-3.55-16.81-3.99c-2.98-0.23-5.95-0.22-8.92,0.03c-0.24,0.02-0.5,0.12-0.69,0.26c-1.52,1.12-3.1,2.19-4.55,3.41
		c-2.41,2.02-4.52,4.33-6.02,7.13c-1.75,3.25-2.3,6.65-0.98,10.17c0.78,2.09,1.75,4.1,2.65,6.15c0.16,0.36,0.36,0.71,0.55,1.09
		c0.89-0.56,1.73-1.09,2.58-1.61c8.02-4.9,16.34-9.16,25.25-12.22C80.35,17.04,86.67,15.55,93.32,15.81z M42.35,35.5
		c-1.14-2.64-2.36-5.3-3.46-8.01c-1.06-2.61-1.27-5.35-0.82-8.13c0.59-3.63,2.23-6.79,4.46-9.66c0.83-1.06,1.75-2.06,2.64-3.11
		c-0.11,0.03-0.21,0.05-0.3,0.07C39.81,8.09,35.06,10.22,30.6,13c-3.28,2.05-6.31,4.43-9.1,7.11c-0.33,0.31-0.52,0.63-0.47,1.1
		c0.05,0.37,0.01,0.75,0.05,1.11c0.33,3,1.28,5.82,2.49,8.57c1.47,3.34,3.21,6.52,5.1,9.63c0.76,1.25,1.56,2.48,2.3,3.66
		C34.81,41.26,38.6,38.37,42.35,35.5z M18.97,64.51c-0.11,0.14-0.17,0.22-0.22,0.3c-1.62,2.55-3.02,5.21-4.14,8.01
		c-1.72,4.28-2.69,8.72-2.77,13.34c-0.01,0.59,0.01,1.27,0.29,1.76c2.54,4.41,5.65,8.37,9.31,11.91c3.7,3.58,7.81,6.58,12.33,9.03
		c0.7,0.38,1.43,0.73,2.14,1.09c-0.01-0.15-0.06-0.23-0.12-0.31c-1.94-2.59-3.44-5.43-4.58-8.45c-0.98-2.6-1.81-5.24-2.34-7.97
		c-0.42-2.16-0.92-4.3-1.33-6.45c-0.48-2.54-0.83-5.11-1.36-7.64c-0.65-3.11-2.03-5.95-3.62-8.67
		C21.41,68.47,20.19,66.52,18.97,64.51z M6.4,45.79c3.35,0.08,5.55,1.49,7.43,3.48c1.29,1.37,2.41,2.92,3.55,4.42
		c0.64,0.84,1.19,1.75,1.73,2.55c2.83-3.02,5.64-6.02,8.47-9.03c-4.32-6.87-8.52-13.88-10.8-21.93C11.89,31.43,8.42,38.22,6.4,45.79
		z M7.89,78.99c1.49-6.87,4.45-13.01,8.42-18.75c-1.55-2.23-3.06-4.46-4.64-6.63c-0.83-1.14-1.85-2.11-3.15-2.74
		c-0.89-0.43-1.8-0.54-2.76-0.28c-0.29,0.08-0.45,0.21-0.49,0.54c-0.11,1.06-0.3,2.11-0.41,3.17C4.1,61.83,4.82,69.23,7.05,76.47
		C7.31,77.32,7.61,78.15,7.89,78.99z"/>
</g>
<g>
	<path fill="#FFFFFF" d="M146.05,15.17h11.2c1.55,0.02,3.07,0.22,4.55,0.61s2.8,0.99,3.96,1.8c1.16,0.81,2.08,1.85,2.77,3.1
		s1.03,2.77,1.01,4.53c-0.02,0.98-0.18,1.88-0.48,2.69c-0.3,0.81-0.71,1.54-1.23,2.17c-0.53,0.66-1.13,1.21-1.77,1.66
		c-0.65,0.45-1.43,0.87-2.34,1.27v0.08c0.95,0.22,1.86,0.63,2.74,1.22c0.88,0.59,1.6,1.23,2.17,1.94c0.6,0.78,1.07,1.65,1.41,2.61
		c0.34,0.97,0.5,2.01,0.5,3.13c0.02,1.76-0.32,3.31-1.01,4.66c-0.69,1.35-1.61,2.47-2.77,3.36c-1.16,0.92-2.49,1.61-4,2.1
		c-1.51,0.48-3.07,0.73-4.67,0.75h-12.06V15.17z M157.54,31.23c0.9-0.02,1.78-0.16,2.64-0.43c0.86-0.27,1.63-0.66,2.3-1.18
		c0.67-0.5,1.22-1.12,1.63-1.86c0.41-0.74,0.62-1.6,0.62-2.59c0-1.05-0.2-1.95-0.61-2.69c-0.41-0.74-0.94-1.35-1.62-1.84
		c-0.69-0.47-1.48-0.81-2.37-1.04c-0.89-0.22-1.8-0.34-2.73-0.36h-6.55v11.98H157.54z M150.86,48.78h7.37c1-0.02,1.95-0.18,2.85-0.5
		c0.9-0.32,1.69-0.76,2.38-1.33c0.69-0.57,1.24-1.27,1.64-2.1c0.4-0.83,0.61-1.77,0.61-2.82c0.02-1.07-0.16-2.02-0.53-2.85
		c-0.37-0.83-0.88-1.54-1.54-2.12c-0.66-0.57-1.42-1.01-2.3-1.32c-0.88-0.31-1.83-0.48-2.85-0.52h-7.63V48.78z"/>
	<path fill="#FFFFFF" d="M183.31,43.08l-3.03,9.75h-4.79l12.16-37.67h4.01l11.95,37.67h-4.76l-2.98-9.75H183.31z M194.62,38.92
		l-4.97-16.35l-5.05,16.35H194.62z"/>
	<path fill="#FFFFFF" d="M228.63,40.39c-0.53-0.79-1.2-1.47-2.03-2.02c-0.83-0.53-1.74-0.98-2.73-1.35
		c-0.99-0.36-1.94-0.69-2.86-0.98c-1.33-0.43-2.68-0.95-4.05-1.57c-1.37-0.61-2.62-1.35-3.74-2.21c-1.14-0.88-2.07-1.92-2.78-3.12
		c-0.72-1.2-1.07-2.61-1.07-4.23c0-1.62,0.36-3.07,1.07-4.35c0.72-1.28,1.65-2.35,2.81-3.23s2.47-1.55,3.93-2.01
		c1.47-0.46,2.94-0.69,4.42-0.69c1.64,0,3.22,0.27,4.73,0.81c1.52,0.54,2.86,1.31,4.04,2.29c1.17,0.98,2.11,2.17,2.82,3.57
		c0.71,1.4,1.08,2.96,1.11,4.68h-4.92c-0.14-1.09-0.41-2.07-0.8-2.96c-0.4-0.89-0.92-1.65-1.58-2.29c-0.66-0.64-1.44-1.13-2.34-1.49
		s-1.93-0.53-3.07-0.53c-0.91,0-1.81,0.13-2.68,0.39c-0.87,0.26-1.64,0.65-2.32,1.16c-0.69,0.52-1.24,1.16-1.64,1.91
		c-0.41,0.76-0.61,1.64-0.61,2.64c0.02,1.09,0.29,2.01,0.83,2.76c0.53,0.75,1.22,1.38,2.04,1.9c0.81,0.52,1.69,0.95,2.65,1.29
		c0.96,0.35,1.86,0.65,2.7,0.91c1.4,0.43,2.79,0.95,4.19,1.57c1.4,0.61,2.67,1.39,3.83,2.34c1.14,0.88,2.06,1.96,2.76,3.23
		s1.05,2.75,1.05,4.42c0,1.69-0.38,3.17-1.13,4.42c-0.75,1.26-1.72,2.3-2.91,3.13c-1.19,0.85-2.54,1.48-4.04,1.9
		c-1.5,0.42-3,0.63-4.5,0.63c-1.79,0-3.56-0.3-5.29-0.91c-1.73-0.6-3.24-1.48-4.52-2.61c-1.14-0.98-2.04-2.13-2.7-3.46
		c-0.66-1.32-1.02-2.79-1.07-4.41h4.89c0.16,1.17,0.47,2.21,0.96,3.12c0.48,0.91,1.1,1.67,1.86,2.29c0.76,0.64,1.63,1.12,2.63,1.44
		c0.99,0.32,2.07,0.48,3.25,0.48c0.93,0,1.85-0.12,2.76-0.35c0.91-0.23,1.71-0.6,2.42-1.1c0.71-0.48,1.28-1.1,1.73-1.85
		c0.45-0.75,0.67-1.64,0.67-2.68C229.42,42.16,229.15,41.19,228.63,40.39z"/>
	<path fill="#FFFFFF" d="M246.34,40.11v12.73h-4.89V15.17h4.89v18.4l3.65-4.55l11.05-13.84h5.82l-13.17,16.48l14.05,21.19h-5.82
		l-11.39-17.49L246.34,40.11z"/>
	<path fill="#FFFFFF" d="M278.3,35.42v13.35h18.35v4.06h-23.13V15.17h22.9v4.09H278.3v12.11h15.73v4.06H278.3z"/>
	<path fill="#FFFFFF" d="M318.87,19.25v33.59h-4.66V19.25h-11.64v-4.09h27.94v4.09H318.87z"/>
	<path fill="#FFFFFF" d="M336.85,15.17h11.2c1.55,0.02,3.07,0.22,4.55,0.61s2.8,0.99,3.96,1.8c1.16,0.81,2.08,1.85,2.77,3.1
		s1.03,2.77,1.01,4.53c-0.02,0.98-0.18,1.88-0.48,2.69c-0.3,0.81-0.71,1.54-1.23,2.17c-0.53,0.66-1.13,1.21-1.77,1.66
		c-0.65,0.45-1.43,0.87-2.34,1.27v0.08c0.95,0.22,1.86,0.63,2.74,1.22c0.88,0.59,1.6,1.23,2.17,1.94c0.6,0.78,1.07,1.65,1.41,2.61
		c0.34,0.97,0.5,2.01,0.5,3.13c0.02,1.76-0.32,3.31-1.01,4.66c-0.69,1.35-1.61,2.47-2.77,3.36c-1.16,0.92-2.49,1.61-4,2.1
		c-1.51,0.48-3.07,0.73-4.67,0.75h-12.06V15.17z M348.34,31.23c0.9-0.02,1.78-0.16,2.64-0.43c0.86-0.27,1.63-0.66,2.3-1.18
		c0.67-0.5,1.22-1.12,1.63-1.86c0.41-0.74,0.62-1.6,0.62-2.59c0-1.05-0.2-1.95-0.61-2.69c-0.41-0.74-0.94-1.35-1.62-1.84
		c-0.69-0.47-1.48-0.81-2.37-1.04c-0.89-0.22-1.8-0.34-2.73-0.36h-6.55v11.98H348.34z M341.66,48.78h7.37c1-0.02,1.95-0.18,2.85-0.5
		c0.9-0.32,1.69-0.76,2.38-1.33c0.69-0.57,1.24-1.27,1.64-2.1c0.4-0.83,0.61-1.77,0.61-2.82c0.02-1.07-0.16-2.02-0.53-2.85
		c-0.37-0.83-0.88-1.54-1.54-2.12c-0.66-0.57-1.42-1.01-2.3-1.32c-0.88-0.31-1.83-0.48-2.85-0.52h-7.63V48.78z"/>
	<path fill="#FFFFFF" d="M374.11,43.08l-3.03,9.75h-4.79l12.16-37.67h4.01l11.95,37.67h-4.76l-2.98-9.75H374.11z M385.42,38.92
		l-4.97-16.35l-5.05,16.35H385.42z"/>
	<path fill="#FFFFFF" d="M424.33,48.78v4.06h-23.21V15.17h4.79v33.61H424.33z"/>
	<path fill="#FFFFFF" d="M456.13,48.78v4.06h-23.21V15.17h4.79v33.61H456.13z"/>
	<path fill="#FFFFFF" d="M169.93,100.78v4.06h-23.21V67.16h4.79v33.61H169.93z"/>
	<path fill="#FFFFFF" d="M200.67,67.16v4.17h-9.03v29.37h9.03v4.14H177.9v-4.14h8.82V71.33h-8.82v-4.17H200.67z"/>
	<path fill="#FFFFFF" d="M232.21,101.77c-0.66,0.56-1.34,1.05-2.04,1.46c-1.21,0.72-2.51,1.26-3.91,1.62s-2.86,0.52-4.4,0.5
		c-1.55-0.02-2.98-0.25-4.28-0.71s-2.47-1.09-3.51-1.9c-1.04-0.79-1.94-1.73-2.72-2.82s-1.42-2.27-1.94-3.54
		c-0.54-1.26-0.94-2.58-1.2-3.97s-0.41-2.79-0.43-4.21v-4.37c0.02-1.4,0.14-2.79,0.38-4.18c0.23-1.39,0.59-2.72,1.07-4
		c0.48-1.28,1.09-2.46,1.81-3.56s1.6-2.05,2.61-2.86c1-0.79,2.14-1.42,3.42-1.89c1.28-0.47,2.71-0.7,4.3-0.7
		c1.76,0,3.38,0.27,4.86,0.82c1.48,0.54,2.78,1.32,3.88,2.32c1.1,1.02,1.99,2.24,2.67,3.66c0.67,1.42,1.09,3.01,1.24,4.77h-4.73
		c-0.19-1.09-0.48-2.09-0.88-3.01s-0.91-1.71-1.55-2.37c-0.66-0.66-1.43-1.17-2.33-1.54c-0.9-0.37-1.94-0.56-3.13-0.56
		c-1.14,0-2.15,0.19-3.03,0.58c-0.88,0.39-1.65,0.91-2.3,1.57s-1.2,1.42-1.63,2.29c-0.43,0.87-0.79,1.79-1.06,2.75
		c-0.28,0.97-0.47,1.95-0.6,2.95c-0.12,1-0.18,1.97-0.18,2.9v4.42c0.02,0.95,0.1,1.93,0.25,2.94c0.15,1.01,0.38,2,0.69,2.96
		c0.31,0.97,0.71,1.88,1.19,2.74c0.48,0.86,1.07,1.62,1.76,2.28c0.67,0.66,1.46,1.18,2.35,1.57c0.9,0.39,1.92,0.59,3.05,0.61
		c0.66,0.02,1.34-0.01,2.06-0.08c0.72-0.07,1.41-0.21,2.08-0.41s1.3-0.49,1.89-0.84s1.08-0.82,1.48-1.38l0.05-8.46h-7.66v-4.04H234
		l0.08,13.82C233.49,100.59,232.87,101.21,232.21,101.77z"/>
	<path fill="#FFFFFF" d="M260.6,104.84V87.42h-15.45v17.41h-4.5V67.16h4.5v16.2h15.45v-16.2h4.53v37.67H260.6z"/>
	<path fill="#FFFFFF" d="M287.07,71.25v33.58h-4.66V71.25h-11.64v-4.09h27.94v4.09H287.07z"/>
	<path fill="#FFFFFF" d="M327.87,67.16v4.17h-9.03v29.37h9.03v4.14H305.1v-4.14h8.82V71.33h-8.82v-4.17H327.87z"/>
	<path fill="#FFFFFF" d="M355.63,104.84l-14.62-28.15l-0.08,28.15h-4.84V67.16h4.86l14.62,28.1l0.08-28.1h4.84v37.67H355.63z"/>
	<path fill="#FFFFFF" d="M391.21,101.77c-0.66,0.56-1.34,1.05-2.04,1.46c-1.21,0.72-2.51,1.26-3.91,1.62s-2.86,0.52-4.4,0.5
		c-1.55-0.02-2.98-0.25-4.28-0.71s-2.47-1.09-3.51-1.9c-1.04-0.79-1.94-1.73-2.72-2.82s-1.42-2.27-1.94-3.54
		c-0.54-1.26-0.94-2.58-1.2-3.97s-0.41-2.79-0.43-4.21v-4.37c0.02-1.4,0.14-2.79,0.38-4.18c0.23-1.39,0.59-2.72,1.07-4
		c0.48-1.28,1.09-2.46,1.81-3.56s1.6-2.05,2.61-2.86c1-0.79,2.14-1.42,3.42-1.89c1.28-0.47,2.71-0.7,4.3-0.7
		c1.76,0,3.38,0.27,4.86,0.82c1.48,0.54,2.78,1.32,3.88,2.32c1.1,1.02,1.99,2.24,2.67,3.66c0.67,1.42,1.09,3.01,1.24,4.77h-4.73
		c-0.19-1.09-0.48-2.09-0.88-3.01s-0.91-1.71-1.55-2.37c-0.66-0.66-1.43-1.17-2.33-1.54c-0.9-0.37-1.94-0.56-3.13-0.56
		c-1.14,0-2.15,0.19-3.03,0.58c-0.88,0.39-1.65,0.91-2.3,1.57s-1.2,1.42-1.63,2.29c-0.43,0.87-0.79,1.79-1.06,2.75
		c-0.28,0.97-0.47,1.95-0.6,2.95c-0.12,1-0.18,1.97-0.18,2.9v4.42c0.02,0.95,0.1,1.93,0.25,2.94c0.15,1.01,0.38,2,0.69,2.96
		c0.31,0.97,0.71,1.88,1.19,2.74c0.48,0.86,1.07,1.62,1.76,2.28c0.67,0.66,1.46,1.18,2.35,1.57c0.9,0.39,1.92,0.59,3.05,0.61
		c0.66,0.02,1.34-0.01,2.06-0.08c0.72-0.07,1.41-0.21,2.08-0.41s1.3-0.49,1.89-0.84s1.08-0.82,1.48-1.38l0.05-8.46h-7.66v-4.04H393
		l0.08,13.82C392.49,100.59,391.87,101.21,391.21,101.77z"/>
</g>
</svg>
